<?xml version="1.0" encoding="UTF-8" standalone="no"?>
<!-- Created with Inkscape (http://www.inkscape.org/) -->

<svg
   width="48"
   height="48"
   viewBox="0 0 12.7 12.7"
   version="1.1"
   id="svg5"
   inkscape:version="1.2.2 (b0a8486541, 2022-12-01)"
   sodipodi:docname="behhance.svg"
   xmlns:inkscape="http://www.inkscape.org/namespaces/inkscape"
   xmlns:sodipodi="http://sodipodi.sourceforge.net/DTD/sodipodi-0.dtd"
   xmlns="http://www.w3.org/2000/svg"
   xmlns:svg="http://www.w3.org/2000/svg">
  <sodipodi:namedview
     id="namedview7"
     pagecolor="#ffffff"
     bordercolor="#999999"
     borderopacity="1"
     inkscape:pageshadow="0"
     inkscape:pageopacity="0"
     inkscape:pagecheckerboard="0"
     inkscape:document-units="mm"
     showgrid="false"
     inkscape:zoom="4.3137481"
     inkscape:cx="2.3181697"
     inkscape:cy="38.2498"
     inkscape:window-width="1366"
     inkscape:window-height="699"
     inkscape:window-x="0"
     inkscape:window-y="0"
     inkscape:window-maximized="1"
     inkscape:current-layer="layer1"
     inkscape:showpageshadow="2"
     inkscape:deskcolor="#d1d1d1">
    <sodipodi:guide
       position="0,12.7"
       orientation="0,48"
       id="guide21272"
       inkscape:locked="false" />
    <sodipodi:guide
       position="12.7,12.7"
       orientation="48,0"
       id="guide21274"
       inkscape:locked="false" />
    <sodipodi:guide
       position="12.7,0"
       orientation="0,-48"
       id="guide21276"
       inkscape:locked="false" />
    <sodipodi:guide
       position="0,0"
       orientation="-48,0"
       id="guide21278"
       inkscape:locked="false" />
  </sodipodi:namedview>
  <defs
     id="defs2" />
  <g
     inkscape:label="Camada 1"
     inkscape:groupmode="layer"
     id="layer1">
    <path
       style="display:inline;fill:#e9e9e9;fill-opacity:1;stroke-width:0.00992559"
       d="M 6.0644678,12.697368 C 6.0399733,12.694748 5.9505095,12.68951 5.8659445,12.682831 5.4755125,12.65546 5.0464659,12.580287 4.6493539,12.469821 2.6303003,11.908046 1.0171742,10.384746 0.34028785,8.400735 0.03845544,7.5160071 -0.06453932,6.5752798 0.03912347,5.6495214 0.31322602,3.2012494 1.9724856,1.134994 4.3025014,0.34036805 5.9359568,-0.21669257 7.7198764,-0.08600543 9.2558645,0.70326418 11.044408,1.6223304 12.297085,3.3410384 12.620098,5.3191301 12.681269,5.6939569 12.7,5.9355951 12.7,6.3512952 12.7,6.7669953 12.68127,7.0086335 12.6201,7.3834603 12.33739,9.114649 11.336534,10.663866 9.8712919,11.638264 8.9842638,12.228169 7.9850456,12.579017 6.908231,12.67864 6.7562997,12.69265 6.1660348,12.70575 6.0644678,12.69737 Z M 4.9877708,9.2026425 C 5.5286145,9.1139811 5.8848066,8.9530548 6.1692964,8.6691289 6.4485729,8.3904414 6.5834236,8.063298 6.5977404,7.6297608 6.6162095,7.0705001 6.428938,6.6274158 6.0546045,6.3448388 5.9630449,6.2756908 5.7541475,6.1680922 5.6426121,6.1326015 5.604364,6.1208149 5.5695216,6.1083735 5.565068,6.1058852 5.5611384,6.103266 5.6029232,6.0748472 5.6588544,6.0424995 6.0532684,5.8146516 6.2625719,5.5180354 6.3133161,5.1149732 6.3307373,4.9764414 6.3198655,4.6470978 6.2941921,4.5274377 6.2381298,4.2674778 6.1296467,4.0637531 5.9610932,3.9019493 5.7336088,3.6836092 5.4535068,3.5693448 4.9774884,3.5007337 4.8308751,3.4796488 4.8052017,3.4792559 3.3023925,3.4758509 L 1.7762022,3.471922 v 2.878797 2.87881 L 3.3172857,9.225599 C 4.8372541,9.221669 4.8601375,9.221669 4.9877446,9.20124 Z M 3.0467984,7.4585802 V 6.6689308 h 0.753448 c 0.7023894,0 0.7610583,0.00101 0.8660833,0.019382 0.1262711,0.02174 0.1921312,0.042301 0.2864153,0.089578 0.1916596,0.096126 0.291825,0.2188247 0.3492496,0.4280236 0.020434,0.073863 0.022792,0.1049007 0.022399,0.2768278 C 5.3240134,7.665723 5.3217735,7.6806003 5.297541,7.7556679 5.2122687,8.0103761 5.0222989,8.1581015 4.7017092,8.2189072 4.5954791,8.2390754 4.5548863,8.2401231 3.818519,8.2440519 l -0.7717861,0.00393 z m 0,-2.3287166 V 4.4542822 l 0.6824532,0.00393 c 0.7408078,0.00393 0.7919712,0.00786 0.9569095,0.062469 0.201012,0.066791 0.3388492,0.2080334 0.391663,0.401399 0.027114,0.099531 0.025149,0.3176356 -0.00393,0.4200349 -0.011789,0.042694 -0.031568,0.096257 -0.043095,0.1190446 -0.093,0.1843424 -0.2973657,0.3023131 -0.5776378,0.3335606 -0.058027,0.00655 -0.3514501,0.010477 -0.7507234,0.010477 H 3.0469032 Z M 9.3005309,9.2010448 C 9.5200906,9.1654231 9.6552557,9.127706 9.8216611,9.0556506 10.154419,8.9116446 10.370272,8.7333265 10.563792,8.4426036 10.66714,8.2874135 10.812522,7.9755795 10.835759,7.8593899 l 0.0066,-0.029336 -0.500042,2.619e-4 -0.500041,2.488e-4 -0.037986,0.080149 C 9.7281367,8.0714962 9.5163575,8.2420089 9.3012251,8.315793 8.9989343,8.419515 8.5698484,8.3783929 8.3221134,8.2220241 8.2477131,8.1750087 8.1493814,8.0796813 8.0974059,8.0039721 8.0033576,7.8670643 7.9438766,7.6634705 7.9166051,7.3858045 l -0.00655,-0.062076 H 9.413795 10.91756 l 0.0066,-0.046884 C 10.933279,7.2091366 10.92018,6.8505753 10.9042,6.728309 10.837659,6.2520652 10.678746,5.8596109 10.421684,5.5373261 10.153804,5.2014868 9.7472738,4.95774 9.3300946,4.8828428 9.0957727,4.8408039 8.8186312,4.8333391 8.5856061,4.8628056 8.0519405,4.9302511 7.5663732,5.2008582 7.2324622,5.6168463 7.0126798,5.8906751 6.8544741,6.2650828 6.7920328,6.6592134 c -0.025542,0.1609787 -0.02528,0.6170937 3.799e-4,0.7881695 0.074269,0.4964907 0.2826298,0.9213974 0.6037434,1.2311622 0.3198038,0.3085337 0.71389,0.4822026 1.2269383,0.5406772 0.1348638,0.015323 0.5368486,0.00393 0.677371,-0.018335 z M 7.9108155,6.5858746 c 0,-0.027502 0.036545,-0.1997697 0.055931,-0.2643078 0.069685,-0.2314363 0.2250874,-0.412963 0.4454461,-0.5205091 0.176177,-0.085911 0.4035697,-0.1149848 0.6303337,-0.08028 0.301374,0.046099 0.4668886,0.1715342 0.6011106,0.4556697 0.044928,0.094948 0.1067541,0.2857071 0.1186739,0.3659476 l 0.00655,0.047146 H 8.8396022 c -0.5110835,0 -0.9292582,-0.00262 -0.9292582,-0.00393 z M 10.040055,4.088518 V 3.7659582 L 8.8761605,3.763339 7.7122923,3.7607197 v 0.3209359 c 0,0.1765239 0.00393,0.323948 0.00655,0.3275887 0.00393,0.00393 0.5274175,0.00524 1.1638945,0.00393 l 1.1572272,-0.00262 z"
       id="path31310-7" />
  </g>
</svg>
