<?xml version="1.0" encoding="UTF-8" standalone="no"?>
<!-- Created with Inkscape (http://www.inkscape.org/) -->

<svg
   width="48"
   height="48"
   viewBox="0 0 12.7 12.7"
   version="1.1"
   id="svg5"
   inkscape:version="1.2.2 (b0a8486541, 2022-12-01)"
   sodipodi:docname="deviantart.svg"
   xmlns:inkscape="http://www.inkscape.org/namespaces/inkscape"
   xmlns:sodipodi="http://sodipodi.sourceforge.net/DTD/sodipodi-0.dtd"
   xmlns="http://www.w3.org/2000/svg"
   xmlns:svg="http://www.w3.org/2000/svg">
  <sodipodi:namedview
     id="namedview7"
     pagecolor="#ffffff"
     bordercolor="#999999"
     borderopacity="1"
     inkscape:pageshadow="0"
     inkscape:pageopacity="0"
     inkscape:pagecheckerboard="0"
     inkscape:document-units="mm"
     showgrid="false"
     inkscape:zoom="4.3137481"
     inkscape:cx="5.7954242"
     inkscape:cy="38.2498"
     inkscape:window-width="1366"
     inkscape:window-height="699"
     inkscape:window-x="0"
     inkscape:window-y="0"
     inkscape:window-maximized="1"
     inkscape:current-layer="layer1"
     inkscape:showpageshadow="2"
     inkscape:deskcolor="#d1d1d1">
    <sodipodi:guide
       position="0,12.7"
       orientation="0,48"
       id="guide21272"
       inkscape:locked="false" />
    <sodipodi:guide
       position="12.7,12.7"
       orientation="48,0"
       id="guide21274"
       inkscape:locked="false" />
    <sodipodi:guide
       position="12.7,0"
       orientation="0,-48"
       id="guide21276"
       inkscape:locked="false" />
    <sodipodi:guide
       position="0,0"
       orientation="-48,0"
       id="guide21278"
       inkscape:locked="false" />
  </sodipodi:namedview>
  <defs
     id="defs2" />
  <g
     inkscape:label="Camada 1"
     inkscape:groupmode="layer"
     id="layer1">
    <path
       style="display:inline;fill:#e9e9e9;fill-opacity:1;stroke-width:0.0287651"
       d="M 5.6017864,12.727601 C 4.4497394,12.581334 3.4168846,12.156991 2.4623862,11.437799 2.1481581,11.201032 1.5262929,10.57109 1.278331,10.238351 0.59493576,9.3213207 0.18285421,8.2969778 0.03039075,7.1362216 -0.01065559,6.8232959 -0.0099978,5.9832536 0.03160109,5.6359385 0.38963829,2.6488965 2.7718651,0.32006937 5.7675505,0.02856144 7.4365972,-0.13384786 9.1836582,0.40300403 10.45845,1.4700247 c 1.234758,1.0335257 2.005521,2.409591 2.2448,4.0077012 C 12.7739,5.949693 12.76824,6.8028516 12.69141,7.3204828 12.277197,10.094307 10.129553,12.257292 7.3500446,12.7 6.9544343,12.763017 5.999949,12.778014 5.6022995,12.727627 Z M 5.4433633,10.446898 c 0.065516,-0.06907 0.2185586,-0.346565 0.4251191,-0.7710001 0.307637,-0.6321004 0.3287259,-0.666753 0.4511545,-0.740689 l 0.1284013,-0.07762 H 7.7125285 8.9770188 V 7.8076581 6.7577401 H 8.2916766 c -0.6742914,0 -0.6862895,-0.00109 -0.7436097,-0.064727 -0.0321,-0.035652 -0.066963,-0.080251 -0.077751,-0.099195 -0.018418,-0.032758 1.3388078,-2.7865595 1.4525799,-2.9471402 0.049729,-0.070121 0.054071,-0.138755 0.054071,-0.841371 V 2.0402793 H 8.2430524 c -0.7071152,0 -0.7374264,0.00263 -0.8301884,0.063148 C 7.334718,2.1546039 7.2481524,2.2998448 6.9539738,2.8729016 6.677082,3.4122663 6.5677041,3.5979484 6.4912816,3.6583601 L 6.3911654,3.737427 H 5.1239649 3.8567645 v 1.0786898 1.0786899 h 0.7002874 c 0.6577544,0 0.7033658,0.00395 0.7510427,0.056044 0.049071,0.054202 0.026443,0.1041946 -0.7002874,1.5385273 L 3.8567645,8.9718217 v 0.7914444 0.7914309 h 0.7420573 0.7420441 z"
       id="path31312-3" />
  </g>
</svg>
