<?xml version="1.0" encoding="UTF-8" standalone="no"?>
<!-- Created with Inkscape (http://www.inkscape.org/) -->

<svg
   width="48"
   height="48"
   viewBox="0 0 12.7 12.7"
   version="1.1"
   id="svg5"
   inkscape:version="1.2.2 (b0a8486541, 2022-12-01)"
   sodipodi:docname="email.svg"
   xml:space="preserve"
   xmlns:inkscape="http://www.inkscape.org/namespaces/inkscape"
   xmlns:sodipodi="http://sodipodi.sourceforge.net/DTD/sodipodi-0.dtd"
   xmlns="http://www.w3.org/2000/svg"
   xmlns:svg="http://www.w3.org/2000/svg"><sodipodi:namedview
     id="namedview7"
     pagecolor="#ffffff"
     bordercolor="#999999"
     borderopacity="1"
     inkscape:pageshadow="0"
     inkscape:pageopacity="0"
     inkscape:pagecheckerboard="0"
     inkscape:document-units="mm"
     showgrid="false"
     inkscape:zoom="2.1568741"
     inkscape:cx="-6.9545088"
     inkscape:cy="9.2726785"
     inkscape:window-width="1366"
     inkscape:window-height="699"
     inkscape:window-x="0"
     inkscape:window-y="0"
     inkscape:window-maximized="1"
     inkscape:current-layer="layer1"
     inkscape:showpageshadow="2"
     inkscape:deskcolor="#d1d1d1"><sodipodi:guide
       position="0,12.7"
       orientation="0,48"
       id="guide21272"
       inkscape:locked="false" /><sodipodi:guide
       position="12.7,12.7"
       orientation="48,0"
       id="guide21274"
       inkscape:locked="false" /><sodipodi:guide
       position="12.7,0"
       orientation="0,-48"
       id="guide21276"
       inkscape:locked="false" /><sodipodi:guide
       position="0,0"
       orientation="-48,0"
       id="guide21278"
       inkscape:locked="false" /></sodipodi:namedview><defs
     id="defs2" /><g
     inkscape:label="Camada 1"
     inkscape:groupmode="layer"
     id="layer1"><path
       style="fill:#231f20;stroke-width:0.0411377;fill-opacity:1"
       d="M 5.8357755,12.682164 C 3.3503989,12.490566 1.1823978,10.815176 0.35089934,8.4435565 0.09262743,7.7069071 0.03535673,7.3270104 0.03535673,6.3504486 c 0,-0.7756695 0.01176062,-0.9369873 0.0956117,-1.3114911 C 0.76012511,2.2289552 3.0512562,0.22953247 5.8843682,0.01808355 7.739805,-0.12039652 9.5120435,0.54041718 10.836036,1.8644096 c 1.103407,1.1034071 1.730512,2.4686648 1.846254,4.0194443 0.18477,2.4756517 -1.087558,4.8170331 -3.2881015,6.0508781 -0.9984076,0.559807 -2.3391473,0.841425 -3.558413,0.747432 z M 10.200282,8.937806 c 0.07525,-0.083156 0.07836,-0.1858998 0.07836,-2.5873574 0,-2.4014577 -0.0031,-2.5042016 -0.07836,-2.5873574 l -0.07836,-0.086594 H 6.3499971 2.5780785 l -0.078367,0.086594 c -0.075255,0.083156 -0.078367,0.1858997 -0.078367,2.5873574 0,2.4014576 0.00311,2.5042016 0.078367,2.5873574 L 2.5780785,9.0244 H 6.3499971 10.121915 Z M 4.1324822,7.553727 C 4.6571322,6.9937397 5.1531864,6.4669396 5.2348258,6.3830601 L 5.3832606,6.2305522 5.8152067,6.5568576 c 0.2683282,0.2027036 0.4709027,0.3266248 0.5347904,0.3271481 0.063197,5.13e-4 0.2297146,-0.095517 0.431946,-0.2491124 C 6.9629491,6.497418 7.1595175,6.3498837 7.218762,6.3070392 L 7.326479,6.2291401 8.4237723,7.4005127 9.5210654,8.5718855 H 6.3498198 3.178574 Z M 2.8944283,6.29252 c 0,-1.5353892 0.010445,-1.9186023 0.051423,-1.8866141 0.028282,0.022079 0.5020672,0.377666 1.0528556,0.7901951 L 5.00014,5.9461541 4.9037363,6.0541702 C 4.8507142,6.1135788 4.4018463,6.5979246 3.9062523,7.1304938 3.4106583,7.6630632 2.9802549,8.1259086 2.9498002,8.1590393 2.9033269,8.209596 2.8944283,7.9096333 2.8944283,6.29252 Z M 8.9211047,7.271063 C 8.445964,6.7621442 7.9775926,6.2550909 7.8802792,6.1442774 L 7.7033454,5.9427984 8.7476717,5.1593182 C 9.322051,4.7284042 9.7996786,4.375838 9.8090662,4.375838 c 0.00938,0 0.017068,0.8608068 0.017068,1.912904 0,1.0520973 -0.00926,1.9117168 -0.020568,1.9102655 C 9.794253,8.1975615 9.3962454,7.7799816 8.9211047,7.271063 Z M 4.8377148,5.2554895 3.3460018,4.1290117 H 6.3562262 9.366451 L 7.8585913,5.2602989 C 7.0292686,5.8825069 6.3459384,6.3894222 6.34008,6.3867769 6.3342215,6.3841322 5.6581573,5.8750524 4.8377148,5.2554895 Z"
       id="path22821" /></g></svg>
