<?xml version="1.0" encoding="UTF-8" standalone="no"?>
<!-- Created with Inkscape (http://www.inkscape.org/) -->

<svg
   width="48"
   height="48"
   viewBox="0 0 12.7 12.7"
   version="1.1"
   id="svg5"
   inkscape:version="1.2.2 (b0a8486541, 2022-12-01)"
   sodipodi:docname="github.svg"
   xmlns:inkscape="http://www.inkscape.org/namespaces/inkscape"
   xmlns:sodipodi="http://sodipodi.sourceforge.net/DTD/sodipodi-0.dtd"
   xmlns="http://www.w3.org/2000/svg"
   xmlns:svg="http://www.w3.org/2000/svg">
  <sodipodi:namedview
     id="namedview7"
     pagecolor="#ffffff"
     bordercolor="#999999"
     borderopacity="1"
     inkscape:pageshadow="0"
     inkscape:pageopacity="0"
     inkscape:pagecheckerboard="0"
     inkscape:document-units="mm"
     showgrid="false"
     inkscape:zoom="4.3137481"
     inkscape:cx="2.3181697"
     inkscape:cy="38.2498"
     inkscape:window-width="1366"
     inkscape:window-height="699"
     inkscape:window-x="0"
     inkscape:window-y="0"
     inkscape:window-maximized="1"
     inkscape:current-layer="layer1"
     inkscape:showpageshadow="2"
     inkscape:deskcolor="#d1d1d1">
    <sodipodi:guide
       position="0,12.7"
       orientation="0,48"
       id="guide21272"
       inkscape:locked="false" />
    <sodipodi:guide
       position="12.7,12.7"
       orientation="48,0"
       id="guide21274"
       inkscape:locked="false" />
    <sodipodi:guide
       position="12.7,0"
       orientation="0,-48"
       id="guide21276"
       inkscape:locked="false" />
    <sodipodi:guide
       position="0,0"
       orientation="-48,0"
       id="guide21278"
       inkscape:locked="false" />
  </sodipodi:namedview>
  <defs
     id="defs2" />
  <g
     inkscape:label="Camada 1"
     inkscape:groupmode="layer"
     id="layer1">
    <path
       style="display:inline;fill:#e9e9e9;fill-opacity:1;stroke-width:0.0251568"
       d="M 4.3614087,12.693732 C 4.2406621,12.669602 3.7235732,12.449377 3.4324324,12.298029 1.9052627,11.504115 0.69889659,9.9978334 0.22692399,8.2956034 0.06333983,7.7055337 5.9611679e-4,7.2094633 6.7894813e-6,6.5012241 -4.6467237e-4,5.9199484 0.02344891,5.6608335 0.12455129,5.1562373 0.59484758,2.80679 2.3761221,0.86492343 4.6447966,0.22845728 5.9412904,-0.13526065 7.4243654,-0.06157064 8.6457528,0.42727419 10.133176,1.0226123 11.329929,2.1392901 12.045818,3.5998591 c 0.327116,0.6673927 0.525064,1.3364878 0.624922,2.1123443 0.03929,0.3046131 0.0389,1.2585348 -4.84e-4,1.5780414 -0.124414,1.009273 -0.450325,1.929118 -0.972574,2.7446812 -0.754011,1.177472 -1.7766904,2.036175 -3.022214,2.537607 -0.3842807,0.154713 -0.5218428,0.163802 -0.6405726,0.04223 l -0.080411,-0.08231 -0.015061,-1.151278 C 7.9233161,10.14894 7.9170299,10.084433 7.7850992,9.7810799 7.7524897,9.7058751 7.679937,9.5855875 7.6240164,9.5135866 L 7.5222592,9.3826149 7.7258783,9.3533909 C 8.3768362,9.2600887 8.8839327,9.0775058 9.3214755,8.7787643 9.8535594,8.4154486 10.181422,7.8516268 10.342518,7.022832 10.395426,6.7500972 10.418345,5.9844824 10.38089,5.7391082 10.316849,5.3207629 10.11471,4.8568791 9.8612731,4.5470245 l -0.099924,-0.12199 0.061159,-0.2154532 C 9.9309447,3.8270153 9.9021331,3.2905541 9.7494319,2.8548487 9.701107,2.716571 9.6853916,2.6965432 9.6107042,2.6768505 9.3796486,2.6159895 8.7239107,2.8618597 8.1553932,3.2228027 8.0137713,3.3127536 7.9379576,3.3459992 7.8930901,3.33809 7.8583853,3.3313872 7.7165407,3.3022973 7.5778917,3.2725371 6.7847881,3.1014294 5.9162637,3.1014294 5.123147,3.2725371 4.9844979,3.3024314 4.8419855,3.3320575 4.8064556,3.3383581 4.7598332,3.3464014 4.6926499,3.3175796 4.5654731,3.2340633 4.0584683,2.9014059 3.3406283,2.6324515 3.0767799,2.6762874 2.9966314,2.6896929 2.9908691,2.6982725 2.9315566,2.8974781 2.8352998,3.2204568 2.8109409,3.3855589 2.8129054,3.7014996 c 0.00102,0.2345828 0.014144,0.3353251 0.06404,0.507398 l 0.062338,0.2146891 -0.095733,0.1162256 C 2.5924184,4.8446801 2.384006,5.322385 2.3202408,5.7393495 c -0.037586,0.2457094 -0.014668,1.011485 0.038503,1.2834557 0.1274257,0.6522444 0.3744586,1.1711041 0.718927,1.5096734 0.2589111,0.2544899 0.6764299,0.5014728 1.0847551,0.6416943 0.1774661,0.060861 0.6521365,0.163976 0.8757273,0.1900899 l 0.1422112,0.016623 -0.096781,0.1254755 C 4.9578603,9.6692646 4.8668813,9.8685776 4.8186088,10.087369 c -0.037848,0.171268 -0.041384,0.176698 -0.142316,0.21497 -0.2226085,0.08432 -0.3389941,0.103088 -0.6505911,0.104563 -0.3191928,10e-4 -0.3253349,4.02e-4 -0.4915121,-0.08499 C 3.3190065,10.211316 3.132897,10.02758 2.9625421,9.7572985 2.7157711,9.3658044 2.3409197,9.0899863 2.0091546,9.0558291 1.818278,9.0361231 1.6759751,9.0782163 1.6759751,9.1543595 c 0,0.057912 0.199782,0.2649865 0.3757944,0.3894163 0.05998,0.042495 0.1683904,0.1569247 0.2408908,0.2545168 0.1182583,0.1591634 0.1778328,0.2714214 0.396041,0.7463244 0.119568,0.260321 0.4202821,0.500011 0.7526889,0.600016 0.075172,0.02266 0.2934064,0.05402 0.4848723,0.06984 0.2843963,0.02333 0.3924658,0.02185 0.5905453,-0.008 l 0.242423,-0.03673 0.00655,0.446577 c 0.013096,0.897766 0.00786,0.945865 -0.1169487,1.028885 -0.06535,0.04384 -0.1985509,0.06649 -0.2870548,0.0488 z"
       id="path31314-5" />
  </g>
</svg>
