<?xml version="1.0" encoding="UTF-8" standalone="no"?>
<!-- Created with Inkscape (http://www.inkscape.org/) -->

<svg
   width="48"
   height="48"
   viewBox="0 0 12.7 12.7"
   version="1.1"
   id="svg5"
   inkscape:version="1.2.2 (b0a8486541, 2022-12-01)"
   sodipodi:docname="instagram.svg"
   xml:space="preserve"
   xmlns:inkscape="http://www.inkscape.org/namespaces/inkscape"
   xmlns:sodipodi="http://sodipodi.sourceforge.net/DTD/sodipodi-0.dtd"
   xmlns="http://www.w3.org/2000/svg"
   xmlns:svg="http://www.w3.org/2000/svg"><sodipodi:namedview
     id="namedview7"
     pagecolor="#ffffff"
     bordercolor="#999999"
     borderopacity="1"
     inkscape:pageshadow="0"
     inkscape:pageopacity="0"
     inkscape:pagecheckerboard="0"
     inkscape:document-units="mm"
     showgrid="false"
     inkscape:zoom="4.3137481"
     inkscape:cx="13.213567"
     inkscape:cy="46.59521"
     inkscape:window-width="1366"
     inkscape:window-height="699"
     inkscape:window-x="0"
     inkscape:window-y="0"
     inkscape:window-maximized="1"
     inkscape:current-layer="layer1"
     inkscape:showpageshadow="2"
     inkscape:deskcolor="#d1d1d1"
     inkscape:lockguides="true"><sodipodi:guide
       position="0,12.7"
       orientation="0,48"
       id="guide21272"
       inkscape:locked="true" /><sodipodi:guide
       position="12.7,12.7"
       orientation="48,0"
       id="guide21274"
       inkscape:locked="true" /><sodipodi:guide
       position="12.7,0"
       orientation="0,-48"
       id="guide21276"
       inkscape:locked="true" /><sodipodi:guide
       position="0,0"
       orientation="-48,0"
       id="guide21278"
       inkscape:locked="true" /></sodipodi:namedview><defs
     id="defs2" /><g
     inkscape:label="Camada 1"
     inkscape:groupmode="layer"
     id="layer1"><path
       style="fill:#e9e9e9;stroke-width:0.0220922;fill-opacity:1"
       d="M 2.2058613,12.688672 C 1.6697736,12.603947 1.1900101,12.363393 0.79210709,11.979813 0.36782378,11.570801 0.09533172,11.028186 0.01838008,10.439075 0.00225055,10.315593 -0.00302509,8.9935193 0.00161872,6.2381027 L 0.0083944,2.2173187 0.06741598,1.9951536 C 0.19713707,1.5068709 0.4216581,1.112952 0.76710976,0.76755271 1.0806602,0.45404993 1.414361,0.25070383 1.8302935,0.11968571 2.2367816,-0.00835749 2.0885383,-0.00463207 6.4644108,0.00322943 10.874562,0.01115303 10.527995,5.211109e-4 10.945515,0.14067951 11.900739,0.46133752 12.59282,1.3326445 12.7,2.349521 c 0.02894,0.2745937 0.02795,7.754868 -0.0011,8.030873 -0.117221,1.115033 -0.906381,2.001487 -2.031746,2.282231 -0.187574,0.04679 -0.192324,0.04685 -4.2306603,0.05129 -3.2930403,0.0036 -4.0777052,-0.0011 -4.2306606,-0.02524 z m 6.7160354,-1.616383 c 0.6209639,-0.171 1.0992763,-0.46566 1.5074673,-0.928663 C 10.681746,9.8573548 10.88352,9.498086 11.008887,9.1117673 11.147105,8.68584 11.142165,8.7886774 11.142165,6.3375178 V 4.0951575 L 11.082934,3.8622153 C 10.794886,2.7293952 10.039491,1.9550056 8.9218967,1.6468392 L 8.667836,1.5767844 6.4503956,1.5704808 C 4.0371383,1.5636202 4.0625378,1.5625488 3.6463671,1.6887826 2.7382507,1.9642351 2.0118915,2.6734384 1.7102598,3.579166 1.5496891,4.061318 1.5541407,3.9820237 1.5541407,6.3596101 c 0,1.9569657 0.00325,2.1491208 0.039605,2.3417753 0.2364398,1.2529263 1.1721426,2.1902436 2.4126319,2.4167916 0.148508,0.02712 0.5349032,0.03162 2.4190983,0.02818 L 8.667836,11.14227 Z M 4.4447222,10.193064 C 3.5348143,10.027952 2.787503,9.3299143 2.5579008,8.4306505 2.4841658,8.1418666 2.4716881,7.8421189 2.4716771,6.3596101 2.471666,4.8888785 2.4854891,4.5574628 2.5584045,4.2801315 2.7965432,3.3743966 3.5412124,2.6862177 4.4566388,2.5258978 4.7172367,2.4802591 8.0058714,2.4792856 8.2591303,2.5247713 9.2456297,2.7019531 10.01933,3.482955 10.192584,4.4764742 c 0.04839,0.277482 0.04839,3.4887874 0,3.7662696 -0.173378,0.9942202 -0.9462587,1.7743962 -1.9334537,1.9517032 -0.2353882,0.04228 -3.5804866,0.04107 -3.8144081,-0.0014 z M 6.9765218,8.8562877 C 7.4946907,8.7506909 7.9194844,8.5192657 8.2931763,8.1389794 8.5955614,7.8312589 8.8279405,7.4219936 8.9362414,7.0064115 9.012678,6.7131102 9.0318212,6.2384092 8.9788047,5.9509039 8.8256462,5.1202775 8.3203928,4.4546828 7.5705274,4.0957113 6.3047049,3.4897425 4.8012697,4.0266897 4.1956534,5.3010379 3.5491731,6.6613691 4.2486811,8.2971252 5.6827515,8.7785266 6.0615094,8.9056712 6.5809794,8.9368938 6.9765204,8.8562877 Z M 6.1020896,7.8416059 C 5.4610752,7.6678335 5.0139329,7.1199225 4.9737892,6.4590247 4.9572952,6.1875045 5.0048575,5.964751 5.1364143,5.6973234 5.2205285,5.5263411 5.2724982,5.4548541 5.4197116,5.3076407 5.5694461,5.1579072 5.6353141,5.110451 5.8083847,5.0276154 6.075864,4.8995921 6.2062811,4.8692809 6.4917522,4.8687867 6.9365462,4.8680357 7.2883425,5.0257618 7.6052953,5.3681001 8.0190628,5.8150063 8.1138714,6.4991651 7.8380433,7.0476394 7.6583319,7.4049894 7.3634362,7.6643141 6.9734929,7.8079082 6.7509028,7.889875 6.3389161,7.9058067 6.1020896,7.8416049 Z M 9.1066539,4.3948676 C 9.2394259,4.3305934 9.3590201,4.2090398 9.4214992,4.0748603 9.4938888,3.9193989 9.4941493,3.6970753 9.4221094,3.5424039 9.3582583,3.4052883 9.1715503,3.2328623 9.0468531,3.1958541 8.6189905,3.068868 8.192845,3.374302 8.192845,3.8079586 c 0,0.2915555 0.2078169,0.5559006 0.4970749,0.6322865 0.1058794,0.027961 0.3114761,0.00557 0.4167256,-0.045377 z"
       id="path12338" /></g></svg>
