<?xml version="1.0" encoding="UTF-8" standalone="no"?>
<!-- Created with Inkscape (http://www.inkscape.org/) -->

<svg
   width="48"
   height="48"
   viewBox="0 0 12.7 12.7"
   version="1.1"
   id="svg5"
   inkscape:version="1.2.2 (b0a8486541, 2022-12-01)"
   sodipodi:docname="linkedin.svg"
   xml:space="preserve"
   xmlns:inkscape="http://www.inkscape.org/namespaces/inkscape"
   xmlns:sodipodi="http://sodipodi.sourceforge.net/DTD/sodipodi-0.dtd"
   xmlns="http://www.w3.org/2000/svg"
   xmlns:svg="http://www.w3.org/2000/svg"><sodipodi:namedview
     id="namedview7"
     pagecolor="#ffffff"
     bordercolor="#999999"
     borderopacity="1"
     inkscape:pageshadow="0"
     inkscape:pageopacity="0"
     inkscape:pagecheckerboard="0"
     inkscape:document-units="mm"
     showgrid="false"
     inkscape:zoom="6.1005611"
     inkscape:cx="4.7536611"
     inkscape:cy="43.110789"
     inkscape:window-width="1366"
     inkscape:window-height="699"
     inkscape:window-x="0"
     inkscape:window-y="0"
     inkscape:window-maximized="1"
     inkscape:current-layer="layer1"
     inkscape:showpageshadow="2"
     inkscape:deskcolor="#d1d1d1"><sodipodi:guide
       position="0,12.7"
       orientation="0,48"
       id="guide21272"
       inkscape:locked="false" /><sodipodi:guide
       position="12.7,12.7"
       orientation="48,0"
       id="guide21274"
       inkscape:locked="false" /><sodipodi:guide
       position="12.7,0"
       orientation="0,-48"
       id="guide21276"
       inkscape:locked="false" /><sodipodi:guide
       position="0,0"
       orientation="-48,0"
       id="guide21278"
       inkscape:locked="false" /></sodipodi:namedview><defs
     id="defs2" /><g
     inkscape:label="Camada 1"
     inkscape:groupmode="layer"
     id="layer1"><path
       style="fill:#e9e9e9;stroke-width:0.0330725;fill-opacity:1"
       d="M 1.0666841,12.648825 C 0.97119926,12.623115 0.83090622,12.570361 0.75492159,12.531596 0.56318101,12.433777 0.29239133,12.169344 0.18851,11.978482 -0.00939275,11.614867 7.2136894e-5,11.897028 7.2136894e-5,6.3612154 7.2136894e-5,2.7347212 0.01064706,1.2433063 0.03725797,1.1178983 0.11561583,0.74859817 0.39856762,0.36428239 0.72151809,0.18851051 1.0851323,-0.00939312 0.80297517,7.2144484e-5 6.3387845,7.2144484e-5 c 3.6264943,0 5.1179095,0.01057737552 5.2433175,0.03718607552 0.369299,0.07835749 0.753615,0.36130904 0.929388,0.68425975 0.197922,0.36364853 0.188437,0.0803718 0.188437,5.62848193 0,5.5481101 0.0095,5.2648331 -0.188437,5.6284821 -0.175773,0.32295 -0.560089,0.605902 -0.929388,0.68426 -0.125683,0.02666 -1.6131617,0.03657 -5.2585343,0.03501 -4.2713076,-0.0018 -5.111006,-0.0096 -5.2568836,-0.04892 z M 3.7041968,7.9870906 V 5.0270982 h -0.97564 -0.9756399 v 2.937944 c 0,1.6158692 0.00992,2.9478658 0.022049,2.9599928 0.012127,0.01213 0.4511643,0.02205 0.9756399,0.02205 h 0.953591 z M 7.0114508,9.045412 C 7.0278009,7.1815005 7.028807,7.1587446 7.1008195,7.024135 7.2193838,6.8025081 7.3327281,6.6906094 7.547219,6.5834269 7.9445552,6.3848755 8.393639,6.4695916 8.6956823,6.8000748 8.9683673,7.0984358 8.9627307,7.049162 8.9627307,9.1345881 v 1.8134789 l 0.9839081,-0.0088 0.9839082,-0.0088 V 8.8965855 c 0,-1.8356567 -0.0057,-2.0549203 -0.05804,-2.2489327 -0.27741,-1.0273736 -1.2030392,-1.7528446 -2.2364585,-1.7528446 -0.4612812,0 -1.0134743,0.2455662 -1.3828971,0.6149891 L 7.0114508,5.7514937 V 5.3892959 5.0270982 H 6.0192747 5.0270984 v 2.9604846 2.9604842 l 0.9839081,-0.0088 0.983908,-0.0088 z M 3.2262117,3.8060846 C 3.5104249,3.6751477 3.6523602,3.5364166 3.7927704,3.2523167 3.9022669,3.0307654 3.9146503,2.9792377 3.9131984,2.7512108 3.9120609,2.5717631 3.8901343,2.4411792 3.8386261,2.3069923 3.7426735,2.0570208 3.4909739,1.7830089 3.2474681,1.6634306 3.0795293,1.5809605 3.0236995,1.5710204 2.7285568,1.5710434 2.4307126,1.5710662 2.3804509,1.5802244 2.2230134,1.6631517 1.9742681,1.7941746 1.8127631,1.9520254 1.6834348,2.1905214 1.5769091,2.3869674 1.571018,2.415163 1.571018,2.7285567 c 0,0.3939495 0.058032,0.550681 0.2994632,0.808791 0.3565697,0.381202 0.8844729,0.4858445 1.3557305,0.2687369 z"
       id="path12108" /></g></svg>
