<?xml version="1.0" encoding="UTF-8" standalone="no"?>
<!-- Created with Inkscape (http://www.inkscape.org/) -->

<svg
   width="48"
   height="48"
   viewBox="0 0 12.7 12.7"
   version="1.1"
   id="svg5"
   inkscape:version="1.2.2 (b0a8486541, 2022-12-01)"
   sodipodi:docname="telefone.svg"
   xml:space="preserve"
   xmlns:inkscape="http://www.inkscape.org/namespaces/inkscape"
   xmlns:sodipodi="http://sodipodi.sourceforge.net/DTD/sodipodi-0.dtd"
   xmlns="http://www.w3.org/2000/svg"
   xmlns:svg="http://www.w3.org/2000/svg"><sodipodi:namedview
     id="namedview7"
     pagecolor="#ffffff"
     bordercolor="#999999"
     borderopacity="1"
     inkscape:pageshadow="0"
     inkscape:pageopacity="0"
     inkscape:pagecheckerboard="0"
     inkscape:document-units="mm"
     showgrid="false"
     inkscape:zoom="1.078437"
     inkscape:cx="-167.83549"
     inkscape:cy="61.199681"
     inkscape:window-width="1366"
     inkscape:window-height="699"
     inkscape:window-x="0"
     inkscape:window-y="0"
     inkscape:window-maximized="1"
     inkscape:current-layer="layer1"
     inkscape:showpageshadow="2"
     inkscape:deskcolor="#d1d1d1"><sodipodi:guide
       position="0,12.7"
       orientation="0,48"
       id="guide21272"
       inkscape:locked="false" /><sodipodi:guide
       position="12.7,12.7"
       orientation="48,0"
       id="guide21274"
       inkscape:locked="false" /><sodipodi:guide
       position="12.7,0"
       orientation="0,-48"
       id="guide21276"
       inkscape:locked="false" /><sodipodi:guide
       position="0,0"
       orientation="-48,0"
       id="guide21278"
       inkscape:locked="false" /></sodipodi:namedview><defs
     id="defs2" /><g
     inkscape:label="Camada 1"
     inkscape:groupmode="layer"
     id="layer1"><path
       style="fill:#231f20;stroke-width:0.0129636;fill-opacity:1"
       d="M 5.8773746,12.686607 C 5.1941568,12.643054 4.5577796,12.491826 3.9053295,12.217972 3.0826579,11.87267 2.4753866,11.471559 1.8890553,10.886195 0.43893412,9.4384655 -0.23873537,7.3628379 0.07559819,5.3317756 0.21438516,4.4350035 0.55614891,3.5561299 1.05885,2.803262 1.3026315,2.4381632 1.5085667,2.1901929 1.8560087,1.8433899 2.3147471,1.3854938 2.7539145,1.0579692 3.3150154,0.75528461 4.4693615,0.13257546 5.8086624,-0.11562852 7.1203157,0.05007272 8.9149725,0.27679221 10.500725,1.2025687 11.514246,2.615289 c 0.328196,0.4574636 0.62004,1.0250589 0.843266,1.6400355 0.263945,0.7271561 0.382711,1.5939388 0.330396,2.4113277 -0.08776,1.3712148 -0.573719,2.6620808 -1.384561,3.6778498 -0.14355,0.179831 -0.64612,0.699336 -0.826272,0.854116 -0.5774325,0.496108 -1.2952208,0.899261 -2.0489171,1.150794 -0.8252933,0.275426 -1.7019044,0.391308 -2.5507833,0.337195 z M 8.217612,10.237343 c 0.1439965,-0.01452 0.4207044,-0.0666 0.5011804,-0.09433 0.064343,-0.02217 0.7398183,-0.5343034 0.7540362,-0.571699 0.00602,-0.015836 0.015051,-0.086716 0.020067,-0.1575104 L 9.5020161,9.2850893 8.8549192,8.403618 8.2078224,7.5221466 8.150206,7.5141572 C 8.1185172,7.5097622 8.0574512,7.5023055 8.0145041,7.4975842 L 7.9364181,7.4890005 7.5609319,7.7489989 C 7.180845,8.012183 7.1156894,8.0474605 7.0110128,8.0467432 6.8729221,8.0457976 6.689439,7.9594795 6.5068164,7.8095492 6.0052599,7.3977793 5.9326338,7.3290122 5.7171257,7.0618226 5.5172627,6.8140302 5.1405135,6.2484078 5.0275736,6.0265836 4.9729278,5.9192543 4.7788488,5.3975838 4.7457188,5.2689788 4.686658,5.0397139 4.7189996,4.8606905 4.8382757,4.7566406 4.8601898,4.7375236 5.0420864,4.6063483 5.2424908,4.4651396 l 0.3643713,-0.2567431 0.00832,-0.080312 c 0.00458,-0.044171 0.011229,-0.10948 0.014788,-0.14513 L 5.6364383,3.9181363 5.0261512,3.0301259 C 4.6904929,2.5417203 4.4115672,2.1347634 4.4063157,2.1257774 4.4010648,2.1167913 4.3257322,2.089977 4.2389109,2.0661901 L 4.0810535,2.022941 3.7079913,2.2801577 C 3.2741327,2.5792915 3.2248805,2.6253292 3.1180794,2.8315633 2.9418229,3.1719184 2.8617552,3.5642565 2.8617552,4.0875737 c 0,0.2911001 0.014574,0.4782302 0.052933,0.679682 0.1453981,0.7635833 0.6148183,1.774426 1.2310937,2.6510188 0.5123073,0.7287082 0.8711346,1.1751662 1.2502297,1.5555548 0.933712,0.9368972 1.8760356,1.3588697 2.8216004,1.2635137 z"
       id="path22913" /></g></svg>
